<svg width="16" height="22" viewBox="0 0 16 22" fill="none" xmlns="http://www.w3.org/2000/svg">
<path d="M7.6615 0C4.8102 0 2.49216 2.31804 2.49216 5.16934C2.49216 7.96622 4.67961 10.2298 7.53091 10.3278C7.61797 10.3169 7.70503 10.3169 7.77033 10.3278H7.84651C9.18439 10.2831 10.4525 9.71996 11.3826 8.7573C12.3128 7.79464 12.8321 6.50797 12.8308 5.16934C12.8308 2.31804 10.5128 0 7.6615 0ZM13.19 13.2215C10.1537 11.1973 5.20198 11.1973 2.14391 13.2215C0.761797 14.1466 0 15.3981 0 16.7367C0 18.0753 0.761797 19.3159 2.13303 20.2301C3.65662 21.253 5.65906 21.7645 7.6615 21.7645C9.66394 21.7645 11.6664 21.253 13.19 20.2301C14.5612 19.305 15.323 18.0644 15.323 16.7149C15.3121 15.3763 14.5612 14.1357 13.19 13.2215Z" fill="#AEAEAE"/>
</svg>
